<svg width="16" height="18" fill="none" xmlns="http://www.w3.org/2000/svg"><path fill-rule="evenodd" clip-rule="evenodd" d="M4.837 4.25a3.251 3.251 0 016.326 0H4.837zm-1.592 1.5v1.712a.755.755 0 101.51 0V5.75h6.49v1.712a.755.755 0 101.51 0V5.75h1.495v4.75a.75.75 0 001.5 0V5a.75.75 0 00-.75-.75h-2.309a4.751 4.751 0 00-9.382 0H1A.75.75 0 00.25 5v12c0 .414.336.75.75.75h8a.75.75 0 000-1.5H1.75V5.75h1.495z" fill="#fff"/><path fill-rule="evenodd" clip-rule="evenodd" d="M13 12a1 1 0 00-1 1v1h-1a1 1 0 100 2h1v1a1 1 0 102 0v-1h1a1 1 0 100-2h-1v-1a1 1 0 00-1-1z" fill="#F04539"/></svg>